<svg width="141" height="20" viewBox="0 0 141 20" fill="none" xmlns="http://www.w3.org/2000/svg">
<path fill-rule="evenodd" clip-rule="evenodd" d="M92.7164 14.8461C96.2168 14.8461 98.6895 12.3312 98.6895 8.79811C98.6895 5.26505 96.2168 2.75032 92.7164 2.75032C91.6651 2.75053 90.7051 3.03158 89.8914 3.53411V-1H86.0202V14.4737H88.9179L89.2872 13.6297C90.2107 14.4013 91.3897 14.8461 92.7164 14.8461ZM66.1116 14.8461C69.1324 14.8463 71.1375 13.2916 71.1375 10.9158C71.1375 8.08169 68.8299 7.67295 67.0457 7.3569L66.9539 7.34063L66.9314 7.33662C65.8618 7.14588 65.0044 6.99298 65.0044 6.35053C65.0044 5.82358 65.4261 5.51284 66.0539 5.51284C66.7634 5.51284 67.2514 5.85032 67.2514 6.57621H70.9183C70.8737 4.27263 68.9975 2.73263 66.1025 2.73263C63.1897 2.73263 61.2478 4.20379 61.2478 6.48253C61.2478 9.23979 63.5846 9.77179 65.3474 10.0575C66.4396 10.2381 67.3002 10.4251 67.3002 11.0808C67.3002 11.6684 66.7573 11.9606 66.1844 11.9606C65.4419 11.9606 64.8632 11.5779 64.8632 10.7465H61.0941C61.1299 13.2097 63.0131 14.8461 66.1116 14.8461ZM45.1269 10.6309C44.3269 13.2255 42.0272 14.8465 39.1749 14.8465C35.6278 14.8465 33 12.2539 33 8.78084C33 5.29558 35.6067 2.73284 39.1749 2.73284C42.8394 2.73284 45.3766 5.34716 45.3764 8.68211C45.3764 9.02463 45.3465 9.36716 45.2956 9.71874H36.8541C37.1103 11.0227 37.9385 11.6971 39.1749 11.6971C40.0897 11.6971 40.8539 11.2964 41.2303 10.6309H45.1269ZM36.9232 7.55032H41.5189C41.1754 6.4141 40.3564 5.80105 39.1747 5.80105C38.0335 5.80105 37.24 6.42105 36.9232 7.55032ZM52.4651 14.8463C53.7855 14.8463 54.9644 14.4118 55.8954 13.6577L56.2307 14.4617H59.2579V3.09326L56.3394 3.09305L55.9387 3.97221C55 3.19768 53.804 2.75053 52.4651 2.75053C48.9888 2.75053 46.504 5.25642 46.504 8.77726C46.504 12.3103 48.9888 14.8463 52.4651 14.8463ZM50.4438 8.78632C50.4438 10.2709 51.5219 11.3792 52.9886 11.3792C54.4554 11.3792 55.5335 10.2709 55.5335 8.78632C55.5335 7.31074 54.4554 6.20253 52.9886 6.20253C51.5131 6.20253 50.4438 7.31074 50.4438 8.78632ZM80.0886 13.9678C78.5562 17.4472 77.1476 18.704 74.2122 18.704H72.8714V15.3394H73.9482C75.4463 15.3394 75.8981 14.9493 76.4286 13.5345L71.7307 3.10526H75.9859L78.3985 9.36779L80.6467 3.10526H84.8535L80.0886 13.9678ZM89.6478 8.79811C89.6478 10.2705 90.7259 11.3787 92.1926 11.3787C93.6503 11.3787 94.7375 10.2705 94.7375 8.79811C94.7375 7.31347 93.6594 6.20526 92.1926 6.20526C90.7259 6.20526 89.6478 7.31347 89.6478 8.79811ZM105.791 14.8463C107.112 14.8463 108.291 14.4118 109.222 13.6577L109.557 14.4617H112.584V3.09326L109.666 3.09305L109.265 3.97221C108.326 3.19768 107.13 2.75053 105.791 2.75053C102.315 2.75053 99.8303 5.25642 99.8303 8.77726C99.8303 12.3103 102.315 14.8463 105.791 14.8463ZM103.77 8.78632C103.77 10.2709 104.848 11.3792 106.315 11.3792C107.782 11.3792 108.86 10.2709 108.86 8.78632C108.86 7.31074 107.782 6.20253 106.315 6.20253C104.839 6.20253 103.77 7.31074 103.77 8.78632ZM118.968 14.4737V8.40295C118.968 6.956 119.67 6.10316 120.891 6.10316C121.877 6.10316 122.374 6.75958 122.374 8.08274V14.4737H126.289V7.54169C126.289 4.64526 124.556 2.76905 121.916 2.76905C120.445 2.76905 119.183 3.33432 118.337 4.27747L117.799 3.10526H115.052V14.4737H118.968ZM132.716 9.66611V14.4737H128.8V-1H132.716V7.55895L135.424 3.10526H139.821L136.278 8.52358L140.18 14.4737H135.564L132.716 9.66611Z" fill="white"/>
<path fill-rule="evenodd" clip-rule="evenodd" d="M10.8025 0L0 19.704H5.98608L16.7885 0H10.8025Z" fill="url(#paint0_linear)"/>
<path opacity="0.5" fill-rule="evenodd" clip-rule="evenodd" d="M18.1709 0L7.36841 19.704H13.3545L24.157 0H18.1709Z" fill="url(#paint1_linear)"/>
<path opacity="0.15" fill-rule="evenodd" clip-rule="evenodd" d="M25.5393 0L14.7368 19.704H20.7229L31.5254 0H25.5393Z" fill="url(#paint2_linear)"/>
<defs>
<linearGradient id="paint0_linear" x1="5.13267" y1="-7.42211" x2="-10.1946" y2="9.91277" gradientUnits="userSpaceOnUse">
<stop stop-color="#33D35E"/>
<stop offset="1" stop-color="#2AB6D9"/>
</linearGradient>
<linearGradient id="paint1_linear" x1="12.5011" y1="-7.42211" x2="-2.82619" y2="9.91277" gradientUnits="userSpaceOnUse">
<stop stop-color="#33D35E"/>
<stop offset="1" stop-color="#2AB6D9"/>
</linearGradient>
<linearGradient id="paint2_linear" x1="19.8695" y1="-7.42211" x2="4.54222" y2="9.91277" gradientUnits="userSpaceOnUse">
<stop stop-color="#33D35E"/>
<stop offset="1" stop-color="#2AB6D9"/>
</linearGradient>
</defs>
</svg>
